<svg xmlns="http://www.w3.org/2000/svg" version="1.1" viewBox="-5.0 -10.0 110.0 135.0">
 <g>
  <path d="m81.699 21.801h-63.398c-4.6016 0-8.3008 3.6992-8.3008 8.3008v39.699c0 4.6016 3.6992 8.3008 8.3008 8.3008h63.398c4.6016 0 8.3008-3.6992 8.3008-8.3008v-39.699c0-4.5-3.6992-8.3008-8.3008-8.3008zm5.5 48.098c0 3-2.5 5.5-5.5 5.5h-63.398c-3 0-5.5-2.3984-5.5-5.5v-39.797c0-3 2.3984-5.5 5.5-5.5h63.398c1.3008 0 2.6016 0.5 3.5 1.3008 1.1992 1 1.8984 2.5 1.8984 4.1992l0.003906 39.797z"/>
  <path d="m57.602 46.398 27.5 26.301c0.60156-0.80078 1.1016-1.8008 1.1016-2.8984l-0.003906-39.699c0-1.1992-0.5-2.3008-1.3008-3.1992z"/>
  <path d="m52.602 48.898 31.602-22.5c-0.69922-0.5-1.6016-0.69922-2.5-0.69922h-63.402c-0.89844 0-1.8008 0.30078-2.5 0.69922l31.602 22.5c1.4961 1.1016 3.6992 1.1016 5.1992 0z"/>
  <path d="m15.102 27c-0.80078 0.80078-1.3008 1.8984-1.3008 3.1992v39.699c0 1.1016 0.39844 2.1016 1.1016 2.8984l27.5-26.301z"/>
  <path d="m53.199 49.602c-1 0.69922-2.1016 1-3.1992 1-1.1016 0-2.1992-0.30078-3.1992-1l-3.6992-2.6016-27.602 26.398c0.80078 0.60156 1.6992 1 2.8008 1h63.398c1 0 2-0.39844 2.8008-1l-27.602-26.398z"/>
 </g>
<text x="0.0" y="117.5" font-size="5.0" font-weight="bold" font-family="Arbeit Regular, Helvetica, Arial-Unicode, Arial, Sans-serif" fill="#000000">Created by PARDILA</text><text x="0.0" y="122.5" font-size="5.0" font-weight="bold" font-family="Arbeit Regular, Helvetica, Arial-Unicode, Arial, Sans-serif" fill="#000000">from Noun Project</text></svg>