<svg xmlns="http://www.w3.org/2000/svg" xmlns:xlink="http://www.w3.org/1999/xlink" xmlns:serif="http://www.serif.com/" viewBox="0 0 320 400" version="1.1" xml:space="preserve" style="" x="0px" y="0px" fill-rule="evenodd" clip-rule="evenodd" stroke-linejoin="round" stroke-miterlimit="2"><g transform="matrix(1,0,0,1,-2654.63,-2918.67)"><g transform="matrix(0.670257,0,0,0.670257,1057,2867.34)"><rect x="2383.62" y="76.584" width="477.429" height="477.429" style="" fill="none"/></g><g transform="matrix(0.856469,0,0,0.856469,405.744,428.991)"><path d="M2769.69,2973.87C2757.29,2979.23 2745.88,2986.91 2736.14,2996.65C2715.87,3016.93 2704.48,3044.42 2704.48,3073.09L2704.48,3138.1C2704.48,3143.97 2702.5,3149.67 2698.86,3154.27L2674.2,3185.4C2669.62,3191.18 2668.76,3199.07 2671.97,3205.71C2675.18,3212.35 2681.91,3216.57 2689.28,3216.57L2763.74,3216.57L2763.74,3224.6C2763.74,3249.05 2783.55,3268.86 2807.99,3268.86L2817.18,3268.86C2841.62,3268.86 2861.43,3249.05 2861.43,3224.6L2861.43,3216.57L2935.89,3216.57C2943.26,3216.57 2949.99,3212.35 2953.2,3205.71C2956.41,3199.07 2955.54,3191.18 2950.96,3185.4C2950.96,3185.4 2926.31,3154.27 2926.31,3154.27C2922.67,3149.67 2920.68,3143.97 2920.68,3138.1L2920.68,3073.09C2920.68,3044.42 2909.3,3016.93 2889.03,2996.65C2879.29,2986.91 2867.88,2979.23 2855.48,2973.87L2855.48,2959.86C2855.48,2937.06 2837,2918.58 2814.21,2918.58L2810.96,2918.58C2788.16,2918.58 2769.69,2937.06 2769.69,2959.86L2769.69,2973.87ZM2774.15,3216.57L2774.15,3224.6C2774.15,3243.29 2789.3,3258.44 2807.99,3258.44L2817.18,3258.44C2835.86,3258.44 2851.01,3243.29 2851.01,3224.6L2851.01,3216.57L2774.15,3216.57ZM2707.02,3160.74C2712.12,3154.29 2714.9,3146.32 2714.9,3138.1L2714.9,3073.09C2714.9,3047.18 2725.19,3022.34 2743.51,3004.02C2761.83,2985.7 2786.67,2975.41 2812.58,2975.41L2812.59,2975.41C2838.49,2975.41 2863.34,2985.7 2881.66,3004.02C2899.98,3022.34 2910.27,3047.18 2910.27,3073.09C2910.27,3073.09 2910.27,3138.1 2910.27,3138.1C2910.27,3146.32 2913.05,3154.29 2918.15,3160.74C2924.47,3168.73 2934.22,3181.03 2942.8,3191.86C2944.9,3194.51 2945.29,3198.13 2943.82,3201.18C2942.35,3204.22 2939.27,3206.15 2935.89,3206.15C2935.89,3206.15 2689.28,3206.15 2689.28,3206.15C2685.9,3206.15 2682.82,3204.22 2681.35,3201.18C2679.87,3198.13 2680.27,3194.51 2682.37,3191.86L2707.02,3160.74ZM2845.06,2969.99L2845.06,2959.86C2845.06,2942.82 2831.25,2929 2814.21,2929C2814.21,2929 2810.96,2929 2810.96,2929C2793.92,2929 2780.1,2942.82 2780.1,2959.86L2780.1,2969.99C2790.51,2966.71 2801.46,2964.99 2812.58,2964.99C2812.58,2964.99 2812.59,2964.99 2812.59,2964.99C2823.71,2964.99 2834.65,2966.71 2845.06,2969.99Z"/></g></g><text x="0" y="335" fill="#000000" font-size="5px" font-weight="bold" font-family="'Helvetica Neue', Helvetica, Arial-Unicode, Arial, Sans-serif">Created by Gha Arizal</text><text x="0" y="340" fill="#000000" font-size="5px" font-weight="bold" font-family="'Helvetica Neue', Helvetica, Arial-Unicode, Arial, Sans-serif">from the Noun Project</text></svg>