<svg xmlns="http://www.w3.org/2000/svg" xmlns:xlink="http://www.w3.org/1999/xlink" version="1.1" x="0px" y="0px" viewBox="0 0 98 122.5" style="enable-background:new 0 0 98 98;" xml:space="preserve"><title>25</title><g><path d="M79,16.1H19c-3.8,0.1-6.9,3.2-7,7v36c0,3.9,3.1,7,7,7h11.1L31,80c0,0.8,0.5,1.4,1.2,1.7l0.8,0.2c0.5,0,0.9-0.2,1.3-0.5   l17.5-15.3H79c3.9,0,7-3.1,7-7v-36C85.9,19.3,82.8,16.2,79,16.1z M82,59.1c0,1.7-1.3,3-3,3H51c-0.5,0-0.9,0.2-1.3,0.5l-15,13.1   L33.9,64c0-1-0.8-1.9-1.9-1.9c0,0-0.1,0-0.1,0H19c-1.7,0-3-1.3-3-3v-36c0.1-1.6,1.4-2.9,3-3h60c1.6,0.1,2.9,1.4,3,3V59.1z"/><path d="M70.5,31.8H27.2c-1.1,0-2,0.9-2,2s0.9,2,2,2h43.3c1.1,0,2-0.9,2-2S71.6,31.8,70.5,31.8z"/><path d="M70.5,45.3H27.2c-1.1,0-2,0.9-2,2s0.9,2,2,2h43.3c1.1,0,2-0.9,2-2S71.6,45.3,70.5,45.3z"/></g><text x="0" y="113" fill="#000000" font-size="5px" font-weight="bold" font-family="'Helvetica Neue', Helvetica, Arial-Unicode, Arial, Sans-serif">Created by fizae</text><text x="0" y="118" fill="#000000" font-size="5px" font-weight="bold" font-family="'Helvetica Neue', Helvetica, Arial-Unicode, Arial, Sans-serif">from the Noun Project</text></svg>